ModelForces
version=1
nRows=4
nColumns=155
inDegrees=no

This file contains the forces exerted on a model during a simulation.

A force is a generalized force, meaning that it can be either a force (N) or a torque (Nm).

Units are S.I. units (second, meters, Newtons, ...)
Angles are in degrees.

endheader
time	glut_med1_r	glut_med2_r	glut_med3_r	glut_min1_r	glut_min2_r	glut_min3_r	semimem_r	semiten_r	bifemlh_r	bifemsh_r	sar_r	add_long_r	add_brev_r	add_mag1_r	add_mag2_r	add_mag3_r	tfl_r	pect_r	grac_r	glut_max1_r	glut_max2_r	glut_max3_r	iliacus_r	psoas_r	quad_fem_r	gem_r	peri_r	rect_fem_r	vas_med_r	vas_int_r	vas_lat_r	med_gas_r	lat_gas_r	soleus_r	tib_post_r	flex_dig_r	flex_hal_r	tib_ant_r	per_brev_r	per_long_r	per_tert_r	ext_dig_r	ext_hal_r	glut_med1_l	glut_med2_l	glut_med3_l	glut_min1_l	glut_min2_l	glut_min3_l	semimem_l	semiten_l	bifemlh_l	bifemsh_l	sar_l	add_long_l	add_brev_l	add_mag1_l	add_mag2_l	add_mag3_l	tfl_l	pect_l	grac_l	glut_max1_l	glut_max2_l	glut_max3_l	iliacus_l	psoas_l	quad_fem_l	gem_l	peri_l	rect_fem_l	vas_med_l	vas_int_l	vas_lat_l	med_gas_l	lat_gas_l	soleus_l	tib_post_l	flex_dig_l	flex_hal_l	tib_ant_l	per_brev_l	per_long_l	per_tert_l	ext_dig_l	ext_hal_l	ercspn_r	ercspn_l	intobl_r	intobl_l	extobl_r	extobl_l	femur_lat_meniscii_r.femur_lat_r.force.X	femur_lat_meniscii_r.femur_lat_r.force.Y	femur_lat_meniscii_r.femur_lat_r.force.Z	femur_lat_meniscii_r.femur_lat_r.torque.X	femur_lat_meniscii_r.femur_lat_r.torque.Y	femur_lat_meniscii_r.femur_lat_r.torque.Z	femur_lat_meniscii_r.meniscus_lat_r.force.X	femur_lat_meniscii_r.meniscus_lat_r.force.Y	femur_lat_meniscii_r.meniscus_lat_r.force.Z	femur_lat_meniscii_r.meniscus_lat_r.torque.X	femur_lat_meniscii_r.meniscus_lat_r.torque.Y	femur_lat_meniscii_r.meniscus_lat_r.torque.Z	femur_med_meniscii_r.femur_med_r.force.X	femur_med_meniscii_r.femur_med_r.force.Y	femur_med_meniscii_r.femur_med_r.force.Z	femur_med_meniscii_r.femur_med_r.torque.X	femur_med_meniscii_r.femur_med_r.torque.Y	femur_med_meniscii_r.femur_med_r.torque.Z	femur_med_meniscii_r.meniscus_med_r.force.X	femur_med_meniscii_r.meniscus_med_r.force.Y	femur_med_meniscii_r.meniscus_med_r.force.Z	femur_med_meniscii_r.meniscus_med_r.torque.X	femur_med_meniscii_r.meniscus_med_r.torque.Y	femur_med_meniscii_r.meniscus_med_r.torque.Z	femur_med_tibia_r.tibia_upper_r.force.X	femur_med_tibia_r.tibia_upper_r.force.Y	femur_med_tibia_r.tibia_upper_r.force.Z	femur_med_tibia_r.tibia_upper_r.torque.X	femur_med_tibia_r.tibia_upper_r.torque.Y	femur_med_tibia_r.tibia_upper_r.torque.Z	femur_med_tibia_r.femur_med_r.force.X	femur_med_tibia_r.femur_med_r.force.Y	femur_med_tibia_r.femur_med_r.force.Z	femur_med_tibia_r.femur_med_r.torque.X	femur_med_tibia_r.femur_med_r.torque.Y	femur_med_tibia_r.femur_med_r.torque.Z	femur_lat_tibia_r.tibia_upper_r.force.X	femur_lat_tibia_r.tibia_upper_r.force.Y	femur_lat_tibia_r.tibia_upper_r.force.Z	femur_lat_tibia_r.tibia_upper_r.torque.X	femur_lat_tibia_r.tibia_upper_r.torque.Y	femur_lat_tibia_r.tibia_upper_r.torque.Z	femur_lat_tibia_r.femur_lat_r.force.X	femur_lat_tibia_r.femur_lat_r.force.Y	femur_lat_tibia_r.femur_lat_r.force.Z	femur_lat_tibia_r.femur_lat_r.torque.X	femur_lat_tibia_r.femur_lat_r.torque.Y	femur_lat_tibia_r.femur_lat_r.torque.Z	aACL_R	pACL_R	aPCL_R	pPCL_R	aMCL_R	mMCL_R	pMCL_R	aLCL_R	mLCL_R	pLCL_R	aPCL_L	pPCL_L	aMCL_L	aLCL_L
      0.20512539	      9.84364422	      7.23809943	      7.77143027	      3.36175958	      3.94213364	      4.16181608	      0.00000000	    166.98922876	    168.73009165	    324.59071379	    124.93830106	      7.19179320	      5.22435769	      3.72285437	      3.14801790	      5.24369989	      3.31630690	      2.83487375	     95.13974266	      4.67145330	      7.10400555	      5.32615539	     25.51251794	     16.21092142	      4.60896818	      3.32120255	      5.64182916	    103.67189852	     40.02538498	     30.14781197	     54.63408245	      0.00000000	      0.00000000	      0.00000000	      0.00000000	      0.00000000	      0.00000000	     34.94995843	      2.44791045	      4.36416228	     24.56295092	     51.98299662	     11.84417149	      9.84364422	      7.23809943	      7.77143027	      3.36175958	      3.94213364	      4.16181608	     10.47916834	      5.31302609	     10.41167707	      9.17220729	      1.91936653	      7.19179320	      5.22435769	      3.72285437	      3.14801790	      5.24369989	      4.87492786	      2.83487375	      1.97665628	      4.67145330	      7.10400555	      5.32615539	     25.51251794	     16.21092142	      4.60896818	      3.32120255	      5.64182916	     14.41086446	      0.00000000	      0.00000000	      0.00000000	     19.54279563	      9.13590451	     43.62560732	     47.55904019	      4.31194255	      3.76026131	     11.28662500	      5.97831138	     16.01564255	      2.50751924	      7.93204429	      2.53861811	     31.63341703	     31.63341703	     11.62156693	     11.62156693	     29.16299937	     29.16299937	    263.63830554	    203.17876287	     40.61434129	    -21.06163824	      6.40928482	    104.47133365	   -263.63830554	   -203.17876287	    -40.61434129	      5.46183364	     -7.98913762	      4.69450402	      2.68979531	      0.19070891	     -0.36697726	      0.15073970	     -0.04521015	      1.07147345	     -2.68979531	     -0.19070891	      0.36697726	     -0.00591782	      0.04980610	     -0.00759905	  -1030.57619802	   -452.36714276	    285.21911100	     -9.84296694	     23.54813516	      2.06530427	   1030.57619802	    452.36714276	   -285.21911100	    122.98068263	    -17.95331915	    415.60638474	      0.00000000	      0.00000000	      0.00000000	      0.00000000	      0.00000000	      0.00000000	      0.00000000	      0.00000000	      0.00000000	      0.00000000	      0.00000000	      0.00000000	     -5.58948895	      0.00000000	    921.47249761	    571.04618822	     26.19017434	      0.00000000	      0.00000000	      0.00000000	      0.00000000	      0.00000000	      0.00000000	      0.00000000	      0.00000001	      0.00000000
      0.20562861	      9.82854800	      7.22777851	      7.76021204	      3.35716738	      3.93712914	      4.15542855	      0.00000000	    167.04747445	    168.91336493	    324.56409546	    124.86605392	      7.18141753	      5.21728751	      3.71759396	      3.14344740	      5.23541137	      3.29670462	      2.83097452	     95.09363613	      4.66477740	      7.09382687	      5.31839495	     25.49362023	     16.18942045	      4.60253371	      3.31810247	      5.63386158	    106.24954228	     40.10861823	     30.99625094	     54.74422495	      0.00000000	      0.00000000	      0.00000000	      0.00000000	      0.00000000	      0.00000000	     34.87470914	      2.45866877	      4.40140241	     24.50128337	     51.68485439	     11.75511060	      9.82854800	      7.22777851	      7.76021204	      3.35716738	      3.93712914	      4.15542855	     10.49508122	      5.30491908	     10.39418489	      9.15939000	      1.91675689	      7.18141753	      5.21728751	      3.71759396	      3.14344740	      5.23541137	      4.86979922	      2.83097452	      1.97392127	      4.66477740	      7.09382687	      5.31839495	     25.49362023	     16.18942045	      4.60253371	      3.31810247	      5.63386158	     14.38647038	      0.00000000	      0.00000000	      0.00000000	     19.51874246	      9.12389064	     43.55106053	     47.52610460	      4.29666518	      3.74610929	     11.26811985	      5.96780566	     15.99412032	      2.50420208	      7.92510814	      2.53666346	     31.59010694	     31.59010694	     11.60430557	     11.60430557	     29.14743187	     29.14743187	    264.97395785	    204.94053363	     41.80692002	    -21.58965655	      6.44944695	    104.96787822	   -264.97395785	   -204.94053363	    -41.80692002	      5.52231462	     -8.06901564	      4.80683025	      2.41991803	      0.15757342	     -0.36750169	      0.14994510	     -0.04035458	      0.96364245	     -2.41991803	     -0.15757342	      0.36750169	     -0.00494340	      0.04547038	     -0.00664457	  -1034.08844401	   -450.10309960	    287.91605422	     -9.79184857	     23.68808534	      2.13202060	   1034.08844401	    450.10309960	   -287.91605422	    124.01953900	    -18.02508349	    416.98482814	      0.00000000	      0.00000000	      0.00000000	      0.00000000	      0.00000000	      0.00000000	      0.00000000	      0.00000000	      0.00000000	      0.00000000	      0.00000000	      0.00000000	     -5.74819678	      0.00000000	    925.19501332	    573.56984416	     26.14074776	      0.00000000	      0.00000000	      0.00000000	      0.00000000	      0.00000000	      0.00000000	      0.00000000	      0.00000001	      0.00000000
      0.20616127	      9.81267675	      7.21692864	      7.74841905	      3.35233958	      3.93186811	      4.14871389	      0.00000000	    167.14157522	    169.13159754	    324.71500148	    124.81465567	      7.17051027	      5.20985448	      3.71206222	      3.13864283	      5.22669841	      3.27617440	      2.82687529	     95.06866921	      4.65775952	      7.08312676	      5.31023707	     25.47375530	     16.16681990	      4.59576932	      3.31484394	      5.62544418	    107.98905892	     40.20450387	     29.72304206	     54.86869351	      0.00000000	      0.00000000	      0.00000000	      0.00000000	      0.00000000	      0.00000000	     34.79279505	      2.46923581	      4.43999116	     24.43489762	     51.37010861	     11.66514130	      9.81267675	      7.21692864	      7.74841905	      3.35233958	      3.93186811	      4.14871389	     10.51079586	      5.29639693	     10.37578651	      9.14591555	      1.91401335	      7.17051027	      5.20985448	      3.71206222	      3.13864283	      5.22669841	      4.86440782	      2.82687529	      1.97104598	      4.65775952	      7.08312676	      5.31023707	     25.47375530	     16.16681990	      4.59576932	      3.31484394	      5.62544418	     14.36082301	      0.00000000	      0.00000000	      0.00000000	     19.49327453	      9.11118249	     43.47256662	     47.49146299	      4.28051383	      3.73122019	     11.24866259	      5.95675749	     15.97147169	      2.50071521	      7.91775199	      2.53457688	     31.54457492	     31.54457492	     11.58616015	     11.58616015	     29.13106780	     29.13106780	    265.71038127	    204.32849137	     42.21576019	    -21.74461023	      6.46508800	    105.24822092	   -265.71038127	   -204.32849137	    -42.21576019	      5.51353573	     -8.10282852	      4.83867603	      2.17915229	      0.10990677	     -0.35960833	      0.14581706	     -0.03614464	      0.86766356	     -2.17915229	     -0.10990677	      0.35960833	     -0.00397741	      0.04150590	     -0.00650600	  -1037.75527871	   -445.05344882	    289.00765201	     -9.68144918	     23.76798348	      2.10812474	   1037.75527871	    445.05344882	   -289.00765201	    124.36391817	    -18.07960729	    418.44810681	      0.00000000	      0.00000000	      0.00000000	      0.00000000	      0.00000000	      0.00000000	      0.00000000	      0.00000000	      0.00000000	      0.00000000	      0.00000000	      0.00000000	     -5.67973556	      0.00000000	    928.99916131	    575.87554047	     26.20256668	      0.00000000	      0.00000000	      0.00000000	      0.00000000	      0.00000000	      0.00000000	      0.00000000	      0.00000001	      0.00000000
      0.20669392	      9.79691577	      7.20615504	      7.73670914	      3.34754544	      3.92664400	      4.14204666	      0.00000000	    167.29580173	    169.41443332	    325.17373517	    124.80561909	      7.15967986	      5.20247319	      3.70656774	      3.13387220	      5.21804705	      3.25587384	      2.82280471	     95.08285763	      4.65079113	      7.07250212	      5.30213682	     25.45403129	     16.14438061	      4.58905231	      3.31160876	      5.61704412	    107.30804200	     40.32374159	     31.00019718	     55.02048690	      0.00000000	      0.00000000	      0.00000000	      0.00000000	      0.00000000	      0.00000000	     34.70573556	      2.47937155	      4.47819487	     24.36665207	     51.05738970	     11.57888314	      9.79691577	      7.20615504	      7.73670914	      3.34754544	      3.92664400	      4.14204666	     10.52539589	      5.28793505	     10.35750769	      9.13253554	      1.91128892	      7.15967986	      5.20247319	      3.70656774	      3.13387220	      5.21804705	      4.85905441	      2.82280471	      1.96819081	      4.65079113	      7.07250212	      5.30213682	     25.45403129	     16.14438061	      4.58905231	      3.31160876	      5.61704412	     14.33535281	      0.00000000	      0.00000000	      0.00000000	     19.46780110	      9.09848408	     43.39449674	     47.45704664	      4.26438396	      3.71642598	     11.22933839	      5.94578288	     15.94895859	      2.49725314	      7.91037972	      2.53247210	     31.49936061	     31.49936061	     11.56814288	     11.56814288	     29.11482003	     29.11482003	    266.92132674	    205.25823272	     42.24117701	    -21.77846337	      6.48857921	    105.70108097	   -266.92132674	   -205.25823272	    -42.24117701	      5.53760572	     -8.13526952	      4.92623451	      1.88871861	      0.10033312	     -0.33426306	      0.13541559	     -0.03125495	      0.75163805	     -1.88871861	     -0.10033312	      0.33426306	     -0.00354139	      0.03649757	     -0.00492296	  -1040.52807781	   -441.08279666	    288.33287238	     -9.55674475	     23.77004343	      2.13849215	   1040.52807781	    441.08279666	   -288.33287238	    124.00059022	    -18.10193147	    419.53434805	      0.00000000	      0.00000000	      0.00000000	      0.00000000	      0.00000000	      0.00000000	      0.00000000	      0.00000000	      0.00000000	      0.00000000	      0.00000000	      0.00000000	     -5.77971975	      0.00000000	    932.83499720	    578.41984691	     26.10335537	      0.00000000	      0.00000000	      0.00000000	      0.00000000	      0.00000000	      0.00000000	      0.00000000	      0.00000001	      0.00000000
